<svg width="41" height="41" viewBox="0 0 41 41" fill="none" xmlns="http://www.w3.org/2000/svg">
<path d="M9.1103 9.33887H27.3325V11.1611H9.1103V9.33887ZM9.1103 18.45H18.3194V20.2722H9.1103V18.45ZM26.6241 13.8944H9.1103V15.7166H24.8031L26.6241 13.8944ZM14.569 33.1098C14.8753 33.461 15.2641 33.7307 15.7005 33.8945C16.1368 34.0583 16.607 34.1111 17.0689 34.0482H25.9556C26.167 34.0482 26.3698 33.9642 26.5193 33.8147C26.6688 33.6652 26.7528 33.4624 26.7528 33.251C26.7528 33.0395 26.6688 32.8368 26.5193 32.6873C26.3698 32.5377 26.167 32.4538 25.9556 32.4538H17.0689C16.0313 32.4355 16.2158 31.5347 16.3616 31.2556C16.5517 30.9282 16.6997 30.578 16.8024 30.2136C16.8705 29.9203 16.8384 29.6127 16.7112 29.3398C16.584 29.0669 16.3692 28.8444 16.1008 28.7079C15.6697 28.5137 15.1868 28.4661 14.726 28.5725C14.2653 28.6788 13.8521 28.9332 13.5497 29.2968C13.1579 29.7011 12.6135 30.3195 12.0919 30.9208C12.4142 29.6578 12.8322 28.0371 13.2422 26.4564C13.3597 26.0962 13.3363 25.7048 13.1767 25.3612C13.0172 25.0176 12.7333 24.7472 12.3823 24.6045C11.9936 24.4712 11.5688 24.4902 11.1936 24.6578C10.8184 24.8255 10.5208 25.1292 10.3608 25.5077C9.8688 26.4541 5.9738 32.9811 5.93508 33.0471C5.88139 33.137 5.84593 33.2366 5.83072 33.3402C5.81551 33.4438 5.82086 33.5493 5.84645 33.6509C5.87204 33.7524 5.91738 33.8479 5.97988 33.9319C6.04238 34.0159 6.12081 34.0868 6.21069 34.1404C6.39223 34.2489 6.6094 34.2808 6.81444 34.2291C7.01948 34.1774 7.19559 34.0464 7.30403 33.8648C7.4498 33.62 10.559 28.4118 11.5396 26.6728C10.8016 29.52 9.98839 32.6884 9.94055 32.9731C9.88671 33.1824 9.90287 33.4036 9.98657 33.6029C10.0703 33.8022 10.2169 33.9686 10.4041 34.0767C10.6126 34.1801 10.8495 34.2111 11.0776 34.1649C11.3057 34.1187 11.5119 33.9979 11.6637 33.8216C11.8072 33.6917 12.076 33.3831 12.7536 32.5961C13.385 31.8536 14.0316 31.1241 14.6931 30.4083C14.9414 30.1464 15.0917 30.2625 14.946 30.5199C14.6608 30.8803 14.4759 31.3095 14.4099 31.7643C14.3439 32.2191 14.398 32.6832 14.569 33.1098Z" fill="black"/>
<path d="M31.8885 24.7082V36.4445H4.55512V4.55561H31.8885V10.2421L33.4032 8.72736C33.6363 8.49738 33.892 8.29135 34.1662 8.11236V3.41672C34.1662 3.11467 34.0462 2.82499 33.8327 2.6114C33.6191 2.39782 33.3294 2.27783 33.0273 2.27783H3.41623C3.11418 2.27783 2.8245 2.39782 2.61092 2.6114C2.39733 2.82499 2.27734 3.11467 2.27734 3.41672V37.5834C2.27734 37.8854 2.39733 38.1751 2.61092 38.3887C2.8245 38.6023 3.11418 38.7223 3.41623 38.7223H33.0273C33.3294 38.7223 33.6191 38.6023 33.8327 38.3887C34.0462 38.1751 34.1662 37.8854 34.1662 37.5834V24.403C33.4677 24.7732 32.6598 24.8814 31.8885 24.7082Z" fill="#222E50"/>
<path d="M38.8687 13.5083L38.2731 12.9127C38.5775 12.5104 38.7316 12.0143 38.7087 11.5103C38.6858 11.0063 38.4874 10.5262 38.1478 10.1532C37.7069 9.76461 37.1304 9.56598 36.5438 9.60054C35.9572 9.6351 35.408 9.90003 35.0158 10.3377L20.7512 24.6L19.798 28.1783C19.7829 28.2252 19.7811 28.2753 19.7927 28.3231C19.8043 28.3709 19.829 28.4145 19.8639 28.4492C19.8988 28.4838 19.9426 28.5082 19.9904 28.5195C20.0383 28.5308 20.0884 28.5286 20.1351 28.5132L23.701 27.5485L37.0169 14.2327L37.5795 14.7964C37.6188 14.8356 37.6499 14.8822 37.6712 14.9335C37.6925 14.9848 37.7034 15.0398 37.7034 15.0954C37.7034 15.1509 37.6925 15.2059 37.6712 15.2572C37.6499 15.3085 37.6188 15.3551 37.5795 15.3943L31.9796 20.9942C31.8087 21.1652 31.7128 21.397 31.713 21.6387C31.7131 21.8804 31.8092 22.1121 31.9801 22.2829C32.1511 22.4537 32.3829 22.5496 32.6246 22.5495C32.8662 22.5494 33.098 22.4533 33.2688 22.2823L38.8687 16.6824C39.2896 16.2613 39.526 15.6902 39.526 15.0948C39.526 14.4994 39.2896 13.9283 38.8687 13.5072V13.5083Z" fill="#222E50"/>
</svg>
