<svg width="41" height="41" viewBox="0 0 41 41" fill="none" xmlns="http://www.w3.org/2000/svg">
<path d="M18.7126 19.008C17.1358 19.008 15.5945 18.5405 14.2834 17.6645C12.9724 16.7885 11.9506 15.5434 11.3472 14.0867C10.7438 12.6299 10.5859 11.027 10.8935 9.48052C11.2011 7.93406 11.9604 6.51355 13.0753 5.39861C14.1903 4.28368 15.6108 3.5244 17.1573 3.21679C18.7037 2.90918 20.3067 3.06705 21.7634 3.67045C23.2201 4.27385 24.4652 5.29567 25.3412 6.60669C26.2172 7.91772 26.6848 9.45907 26.6848 11.0358C26.6848 13.1502 25.8449 15.178 24.3498 16.673C22.8547 18.1681 20.8269 19.008 18.7126 19.008ZM18.7126 5.43249C17.5863 5.43249 16.4853 5.76646 15.5489 6.39218C14.6124 7.01789 13.8826 7.90724 13.4516 8.94777C13.0206 9.98829 12.9078 11.1333 13.1275 12.2379C13.3472 13.3425 13.8896 14.3571 14.686 15.1535C15.4824 15.9499 16.497 16.4922 17.6016 16.712C18.7062 16.9317 19.8512 16.8189 20.8917 16.3879C21.9322 15.9569 22.8216 15.227 23.4473 14.2906C24.073 13.3542 24.407 12.2532 24.407 11.1269C24.407 10.3791 24.2597 9.63865 23.9735 8.94777C23.6874 8.25688 23.2679 7.62913 22.7391 7.10036C22.2104 6.57158 21.5826 6.15213 20.8917 5.86595C20.2008 5.57978 19.4604 5.43249 18.7126 5.43249ZM25.0562 20.3861C18.893 18.9993 12.4453 19.6672 6.69728 22.288C5.90677 22.6657 5.2398 23.2601 4.77404 24.0021C4.30827 24.7441 4.06288 25.6031 4.06644 26.4792V33.2555C4.06644 33.4051 4.0959 33.5532 4.15314 33.6914C4.21037 33.8296 4.29426 33.9551 4.40002 34.0609C4.50577 34.1666 4.63132 34.2505 4.7695 34.3077C4.90768 34.365 5.05577 34.3944 5.20533 34.3944C5.35489 34.3944 5.50299 34.365 5.64117 34.3077C5.77934 34.2505 5.90489 34.1666 6.01065 34.0609C6.11641 33.9551 6.20029 33.8296 6.25753 33.6914C6.31476 33.5532 6.34422 33.4051 6.34422 33.2555V26.4792C6.33431 26.0358 6.45403 25.5992 6.68871 25.2229C6.92339 24.8466 7.26281 24.547 7.66533 24.3608C11.1279 22.7621 14.8988 21.9418 18.7126 21.9578C20.8495 21.955 22.9791 22.2074 25.0562 22.7094V20.3861ZM25.2156 31.2169H32.2084V32.8114H25.2156V31.2169Z" fill="#222E50"/>
<path d="M37.7774 24.452H31.8893V26.7297H36.6385V36.2622H20.5004V26.7297H27.6754V27.2081C27.6754 27.5101 27.7954 27.7998 28.009 28.0134C28.2226 28.227 28.5123 28.347 28.8143 28.347C29.1164 28.347 29.4061 28.227 29.6196 28.0134C29.8332 27.7998 29.9532 27.5101 29.9532 27.2081V22.7778C29.9532 22.4758 29.8332 22.1861 29.6196 21.9725C29.4061 21.7589 29.1164 21.6389 28.8143 21.6389C28.5123 21.6389 28.2226 21.7589 28.009 21.9725C27.7954 22.1861 27.6754 22.4758 27.6754 22.7778V24.452H19.3615C19.0595 24.452 18.7698 24.572 18.5562 24.7855C18.3426 24.9991 18.2227 25.2888 18.2227 25.5909V37.4011C18.2227 37.7032 18.3426 37.9929 18.5562 38.2065C18.7698 38.42 19.0595 38.54 19.3615 38.54H37.7774C38.0794 38.54 38.3691 38.42 38.5827 38.2065C38.7963 37.9929 38.9163 37.7032 38.9163 37.4011V25.5909C38.9163 25.2888 38.7963 24.9991 38.5827 24.7855C38.3691 24.572 38.0794 24.452 37.7774 24.452Z" fill="#222E50"/>
</svg>
