<svg width="40" height="40" viewBox="0 0 40 40" fill="none" xmlns="http://www.w3.org/2000/svg">
<path d="M20.0007 11.6666C20.9211 11.6666 21.6673 10.9204 21.6673 9.99992C21.6673 9.07944 20.9211 8.33325 20.0007 8.33325C19.0802 8.33325 18.334 9.07944 18.334 9.99992C18.334 10.9204 19.0802 11.6666 20.0007 11.6666Z" fill="#222E50"/>
<path d="M10 28.3333H30V31.6666H10V28.3333ZM16.6667 19.7166L21.32 24.3733L27.8733 17.8149L30 19.9999V13.3333H23.3333L25.5167 15.4583L21.3183 19.6566L16.6667 14.9999L10 21.6666L12.3567 24.0233L16.6667 19.7166Z" fill="#222E50"/>
<path d="M31.6673 4.9999H26.1707C26.007 4.75347 25.8289 4.51695 25.6373 4.29157L25.6206 4.27157C24.3961 2.84532 22.6733 1.94037 20.804 1.74157C20.2732 1.64051 19.7281 1.64051 19.1973 1.74157C17.328 1.94037 15.6052 2.84532 14.3807 4.27157L14.364 4.29157C14.1724 4.51641 13.9943 4.75238 13.8307 4.99823L8.33398 4.9999C7.00831 5.00122 5.73731 5.52843 4.79991 6.46583C3.86252 7.40322 3.33531 8.67422 3.33398 9.9999V33.3332C3.33531 34.6589 3.86252 35.9299 4.79991 36.8673C5.73731 37.8047 7.00831 38.3319 8.33398 38.3332H31.6673C32.993 38.3319 34.264 37.8047 35.2014 36.8673C36.1388 35.9299 36.666 34.6589 36.6673 33.3332V9.9999C36.666 8.67422 36.1388 7.40322 35.2014 6.46583C34.264 5.52843 32.993 5.00122 31.6673 4.9999ZM33.334 33.3332C33.334 33.7753 33.1584 34.1992 32.8458 34.5117C32.5333 34.8243 32.1093 34.9999 31.6673 34.9999H8.33398C7.89209 34.9995 7.46843 34.8237 7.15596 34.5113C6.8435 34.1988 6.66776 33.7751 6.66732 33.3332V9.9999C6.66776 9.55801 6.8435 9.13434 7.15596 8.82188C7.46843 8.50941 7.89209 8.33368 8.33398 8.33323H15.9173C16.1086 7.39133 16.6196 6.54451 17.3638 5.93625C18.1079 5.328 19.0395 4.99572 20.0007 4.99572C20.9618 4.99572 21.8934 5.328 22.6375 5.93625C23.3817 6.54451 23.8927 7.39133 24.084 8.33323H31.6673C32.1092 8.33368 32.5329 8.50941 32.8453 8.82188C33.1578 9.13434 33.3335 9.55801 33.334 9.9999V33.3332Z" fill="#222E50"/>
</svg>
