<svg width="40" height="40" viewBox="0 0 40 40" fill="none" xmlns="http://www.w3.org/2000/svg">
<path d="M15.0007 23.3333L25.0007 13.3333M15.834 14.1667H15.8507M24.1673 22.5H24.184M31.6673 35V8.33333C31.6673 7.44928 31.3161 6.60143 30.691 5.97631C30.0659 5.35119 29.218 5 28.334 5H11.6673C10.7833 5 9.93542 5.35119 9.31029 5.97631C8.68517 6.60143 8.33398 7.44928 8.33398 8.33333V35L14.1673 31.6667L20.0007 35L25.834 31.6667L31.6673 35ZM16.6673 14.1667C16.6673 14.3877 16.5795 14.5996 16.4232 14.7559C16.267 14.9122 16.055 15 15.834 15C15.613 15 15.401 14.9122 15.2447 14.7559C15.0884 14.5996 15.0007 14.3877 15.0007 14.1667C15.0007 13.9457 15.0884 13.7337 15.2447 13.5774C15.401 13.4211 15.613 13.3333 15.834 13.3333C16.055 13.3333 16.267 13.4211 16.4232 13.5774C16.5795 13.7337 16.6673 13.9457 16.6673 14.1667ZM25.0007 22.5C25.0007 22.721 24.9129 22.933 24.7566 23.0893C24.6003 23.2455 24.3883 23.3333 24.1673 23.3333C23.9463 23.3333 23.7343 23.2455 23.5781 23.0893C23.4218 22.933 23.334 22.721 23.334 22.5C23.334 22.279 23.4218 22.067 23.5781 21.9107C23.7343 21.7545 23.9463 21.6667 24.1673 21.6667C24.3883 21.6667 24.6003 21.7545 24.7566 21.9107C24.9129 22.067 25.0007 22.279 25.0007 22.5Z" stroke="#222E50" stroke-width="2" stroke-linecap="round" stroke-linejoin="round"/>
</svg>
