<svg width="40" height="40" viewBox="0 0 40 40" fill="none" xmlns="http://www.w3.org/2000/svg">
<path d="M16.666 13.3333V23.3333L24.4993 28.1666L25.8327 26.1666L19.166 22.1666V13.3333H16.666Z" fill="#222E50"/>
<path d="M29.8673 20.0001C30.1185 21.6566 30.0078 23.348 29.5426 24.9576C29.0775 26.5673 28.269 28.057 27.1728 29.3242C26.0767 30.5914 24.719 31.606 23.1931 32.2981C21.6672 32.9902 20.0095 33.3434 18.334 33.3334C11.834 33.3334 6.66732 28.1667 6.66732 21.6667C6.66732 15.1667 11.834 10.0001 18.334 10.0001C19.5007 10.0001 20.6173 10.1667 21.6673 10.4834V7.05008C20.6007 6.80008 19.484 6.66675 18.334 6.66675C10.0007 6.66675 3.33398 13.3334 3.33398 21.6667C3.33398 30.0001 10.0007 36.6667 18.334 36.6667C20.4468 36.6755 22.5374 36.236 24.4678 35.3772C26.3983 34.5184 28.1245 33.2599 29.5327 31.6848C30.9409 30.1096 31.9989 28.2537 32.6369 26.2395C33.275 24.2253 33.4785 22.0987 33.234 20.0001H29.8673Z" fill="#222E50"/>
<path d="M33.3333 8.33325V3.33325H30V8.33325H25V11.6666H30V16.6666H33.3333V11.6666H38.3333V8.33325H33.3333Z" fill="#222E50"/>
</svg>
