<svg width="40" height="40" viewBox="0 0 40 40" fill="none" xmlns="http://www.w3.org/2000/svg">
<path d="M11.6667 6.66675C8 6.66675 5 9.66675 5 13.3334C5 17.0001 8 20.0001 11.6667 20.0001C15.3333 20.0001 18.3333 17.0001 18.3333 13.3334C18.3333 9.66675 15.3333 6.66675 11.6667 6.66675ZM11.6667 16.6667C9.83333 16.6667 8.33333 15.1667 8.33333 13.3334C8.33333 11.5001 9.83333 10.0001 11.6667 10.0001C13.5 10.0001 15 11.5001 15 13.3334C15 15.1667 13.5 16.6667 11.6667 16.6667ZM11.6667 23.3334C5.16667 23.3334 0 26.3334 0 30.0001V33.3334H18.3333V30.0001H3.33333C3.33333 29.0001 6.33333 26.6667 11.6667 26.6667C14.6667 26.6667 17 27.5001 18.3333 28.3334V24.6667C16.5 23.8334 14.1667 23.3334 11.6667 23.3334ZM36.6667 6.66675H25C23.1667 6.66675 21.6667 8.16675 21.6667 10.0001V30.0001C21.6667 31.8334 23.1667 33.3334 25 33.3334H36.6667C38.5 33.3334 40 31.8334 40 30.0001V10.0001C40 8.16675 38.5 6.66675 36.6667 6.66675ZM26.6667 30.0001H25V10.0001H26.6667V30.0001ZM36.6667 30.0001H30V10.0001H36.6667V30.0001Z" fill="#222E50"/>
</svg>
