<svg width="36" height="36" viewBox="0 0 36 36" fill="none" xmlns="http://www.w3.org/2000/svg">
<path d="M18.0801 2.34009C9.26008 2.34009 2.08008 8.62009 2.08008 16.3401C2.08008 24.0601 9.26008 30.3401 18.0801 30.3401C19.7437 30.343 21.3996 30.1142 23.0001 29.6601L28.5301 33.1801C28.753 33.3229 29.0234 33.3716 29.2821 33.3153C29.5408 33.2591 29.7666 33.1026 29.9101 32.8801C30.014 32.7191 30.0696 32.5317 30.0701 32.3401V25.6101C31.3213 24.4098 32.3198 22.9713 33.0068 21.3793C33.6937 19.7873 34.0552 18.0739 34.0701 16.3401C34.0801 8.62009 26.9001 2.34009 18.0801 2.34009ZM28.3701 24.4501C28.2695 24.5433 28.1893 24.6562 28.1342 24.7818C28.0792 24.9074 28.0505 25.043 28.0501 25.1801V30.5201L23.6701 27.7301C23.5479 27.6529 23.4104 27.603 23.2671 27.584C23.1239 27.5651 22.9782 27.5774 22.8401 27.6201C21.2988 28.0988 19.694 28.3415 18.0801 28.3401C10.3601 28.3401 4.08008 22.9601 4.08008 16.3401C4.08008 9.72009 10.3601 4.34009 18.0801 4.34009C25.8001 4.34009 32.0801 9.72009 32.0801 16.3401C32.0561 17.875 31.714 19.3882 31.0754 20.7841C30.4368 22.18 29.5156 23.4283 28.3701 24.4501Z" fill="#0CA59D"/>
<path d="M31.1001 15.82L31.0001 15.67L28.5001 13.44C28.1782 13.1472 27.8009 12.9219 27.3903 12.7776C26.9798 12.6333 26.5444 12.5729 26.1101 12.6L20.7301 12.94L17.1401 9.94005C16.9945 9.81761 16.8104 9.75034 16.6201 9.75005H13.5601C13.4197 9.74847 13.2815 9.78479 13.1601 9.85519C13.0387 9.92559 12.9385 10.0275 12.8701 10.15C12.7987 10.2695 12.7611 10.406 12.7611 10.545C12.7611 10.6841 12.7987 10.8206 12.8701 10.94L14.2301 13.38L9.5201 13.67L10.8301 15.19L26.2201 14.19C26.4419 14.1758 26.6643 14.2066 26.874 14.2805C27.0836 14.3544 27.2762 14.4699 27.4401 14.62L29.8001 16.75C29.8077 16.7728 29.8077 16.7973 29.8001 16.82C29.8001 16.88 29.7101 16.87 29.7001 16.88H21.8201L21.4701 17.25L16.2801 22.7801H14.6401L17.3701 16.88H8.5401L7.1301 14.16L6.5101 13C6.39271 12.8556 6.22863 12.7566 6.04609 12.7201C5.86356 12.6835 5.67401 12.7118 5.5101 12.8C5.32349 12.9052 5.18612 13.0799 5.12803 13.2861C5.06993 13.4922 5.09584 13.713 5.2001 13.9L7.20009 17.84C7.30301 18.0372 7.45825 18.2021 7.64877 18.3168C7.83929 18.4315 8.05773 18.4914 8.28009 18.49H14.8501L12.9101 22.67C12.8255 22.8552 12.7894 23.0588 12.8051 23.2617C12.8208 23.4646 12.8879 23.6602 13.0001 23.83C13.1082 23.9982 13.2559 24.1371 13.4302 24.2348C13.6046 24.3324 13.8003 24.3858 14.0001 24.39H16.4301C16.596 24.3912 16.7603 24.357 16.9121 24.2897C17.0638 24.2225 17.1995 24.1237 17.3101 24L22.4901 18.49H29.6501C29.9638 18.4986 30.2734 18.4175 30.5426 18.2563C30.8118 18.0952 31.0295 17.8606 31.1701 17.58C31.3161 17.307 31.3866 16.9999 31.3742 16.6905C31.3619 16.3812 31.2673 16.0807 31.1001 15.82ZM14.9201 11.3101H16.3301L18.4201 13.08L16.0001 13.23L14.9201 11.3101Z" fill="#0CA59D"/>
</svg>
