<svg width="36" height="36" viewBox="0 0 36 36" fill="none" xmlns="http://www.w3.org/2000/svg">
<path d="M22.5 4.5C22.1022 4.5 21.7206 4.65804 21.4393 4.93934C21.158 5.22064 21 5.60218 21 6C21 6.39782 21.158 6.77936 21.4393 7.06066C21.7206 7.34196 22.1022 7.5 22.5 7.5H26.25C26.8467 7.5 27.419 7.73705 27.841 8.15901C28.2629 8.58097 28.5 9.15326 28.5 9.75V26.25C28.5 26.8467 28.2629 27.419 27.841 27.841C27.419 28.2629 26.8467 28.5 26.25 28.5H22.5C22.1022 28.5 21.7206 28.658 21.4393 28.9393C21.158 29.2206 21 29.6022 21 30C21 30.3978 21.158 30.7794 21.4393 31.0607C21.7206 31.342 22.1022 31.5 22.5 31.5H26.25C27.6424 31.5 28.9777 30.9469 29.9623 29.9623C30.9469 28.9777 31.5 27.6424 31.5 26.25V9.75C31.5 8.35761 30.9469 7.02226 29.9623 6.03769C28.9777 5.05312 27.6424 4.5 26.25 4.5H22.5ZM7.5 9.75C7.5 9.15326 7.73705 8.58097 8.15901 8.15901C8.58097 7.73705 9.15326 7.5 9.75 7.5H13.5C13.8978 7.5 14.2794 7.34196 14.5607 7.06066C14.842 6.77936 15 6.39782 15 6C15 5.60218 14.842 5.22064 14.5607 4.93934C14.2794 4.65804 13.8978 4.5 13.5 4.5H9.75C8.35761 4.5 7.02226 5.05312 6.03769 6.03769C5.05312 7.02226 4.5 8.35761 4.5 9.75V26.25C4.5 27.6424 5.05312 28.9777 6.03769 29.9623C7.02226 30.9469 8.35761 31.5 9.75 31.5H13.5C13.8978 31.5 14.2794 31.342 14.5607 31.0607C14.842 30.7794 15 30.3978 15 30C15 29.6022 14.842 29.2206 14.5607 28.9393C14.2794 28.658 13.8978 28.5 13.5 28.5H9.75C9.15326 28.5 8.58097 28.2629 8.15901 27.841C7.73705 27.419 7.5 26.8467 7.5 26.25V9.75ZM18.75 10.5C18.75 10.1022 18.592 9.72064 18.3107 9.43934C18.0294 9.15804 17.6478 9 17.25 9C16.8522 9 16.4706 9.15804 16.1893 9.43934C15.908 9.72064 15.75 10.1022 15.75 10.5V19.5C15.75 19.8978 15.908 20.2794 16.1893 20.5607C16.4706 20.842 16.8522 21 17.25 21H23.9955C24.3933 21 24.7749 20.842 25.0562 20.5607C25.3375 20.2794 25.4955 19.8978 25.4955 19.5C25.4955 19.1022 25.3375 18.7206 25.0562 18.4393C24.7749 18.158 24.3933 18 23.9955 18H18.75V10.5Z" fill="white"/>
</svg>
