<svg width="40" height="40" viewBox="0 0 40 40" fill="none" xmlns="http://www.w3.org/2000/svg">
<path fill-rule="evenodd" clip-rule="evenodd" d="M20.084 2.08325H19.9173C18.8106 2.08325 17.8557 2.08325 17.0907 2.18659C16.2723 2.29659 15.4857 2.54492 14.849 3.18159C14.2123 3.81825 13.964 4.60492 13.854 5.42325C13.7507 6.18825 13.7507 7.14325 13.7507 8.25159V12.2966C13.3491 12.1549 12.9264 12.0828 12.5007 12.0833H7.50065C7.00819 12.0833 6.52056 12.1802 6.06559 12.3687C5.61062 12.5572 5.19722 12.8334 4.849 13.1816C4.50078 13.5298 4.22456 13.9432 4.0361 14.3982C3.84765 14.8532 3.75065 15.3408 3.75065 15.8333V35.4166H3.33398C3.00246 35.4166 2.68452 35.5483 2.4501 35.7827C2.21568 36.0171 2.08398 36.3351 2.08398 36.6666C2.08398 36.9981 2.21568 37.316 2.4501 37.5505C2.68452 37.7849 3.00246 37.9166 3.33398 37.9166H36.6673C36.9988 37.9166 37.3168 37.7849 37.5512 37.5505C37.7856 37.316 37.9173 36.9981 37.9173 36.6666C37.9173 36.3351 37.7856 36.0171 37.5512 35.7827C37.3168 35.5483 36.9988 35.4166 36.6673 35.4166H36.2506V24.1666C36.2506 23.172 35.8556 22.2182 35.1523 21.5149C34.449 20.8117 33.4952 20.4166 32.5007 20.4166H27.5007C27.0623 20.4166 26.6423 20.4916 26.2507 20.6299V8.25159C26.2507 7.14325 26.2506 6.18825 26.1473 5.42325C26.0373 4.60492 25.789 3.81825 25.1523 3.18159C24.5156 2.54492 23.7306 2.29659 22.9107 2.18659C22.1457 2.08325 21.1907 2.08325 20.0823 2.08325H20.084ZM33.7507 35.4166V24.1666C33.7507 23.8351 33.619 23.5171 33.3845 23.2827C33.1501 23.0483 32.8322 22.9166 32.5007 22.9166H27.5007C27.1691 22.9166 26.8512 23.0483 26.6168 23.2827C26.3823 23.5171 26.2507 23.8351 26.2507 24.1666V35.4166H33.7507ZM23.7507 35.4166V8.33325C23.7507 7.11992 23.7473 6.33325 23.6707 5.75659C23.5973 5.21492 23.479 5.04492 23.384 4.94992C23.289 4.85492 23.119 4.73659 22.5773 4.66325C21.999 4.58659 21.214 4.58325 20.0007 4.58325C18.7873 4.58325 18.0007 4.58659 17.424 4.66325C16.8823 4.73659 16.7123 4.85492 16.6173 4.94992C16.5223 5.04492 16.404 5.21492 16.3307 5.75659C16.254 6.33492 16.2507 7.11992 16.2507 8.33325V35.4166H23.7507ZM13.7507 35.4166V15.8333C13.7507 15.5017 13.619 15.1838 13.3845 14.9494C13.1501 14.7149 12.8322 14.5833 12.5007 14.5833H7.50065C7.16913 14.5833 6.85119 14.7149 6.61677 14.9494C6.38235 15.1838 6.25065 15.5017 6.25065 15.8333V35.4166H13.7507Z" fill="#222E50"/>
</svg>
