<svg width="37" height="36" viewBox="0 0 37 36" fill="none" xmlns="http://www.w3.org/2000/svg">
<g clip-path="url(#clip0_15640_5680)">
<g clip-path="url(#clip1_15640_5680)">
<path d="M9.21875 24.3243H15.0566M9.21875 28.8145H15.0566M9.21875 15.5675H17.9755M11.1647 19.9459H15.0566" stroke="#222E50" stroke-width="1.94595" stroke-linecap="round"/>
<path d="M28.678 34.054H4.39258V9.02722L12.0148 1.94592H28.678V12.7878" stroke="#222E50" stroke-width="2.91892" stroke-linecap="round"/>
<path d="M13.4998 1.94592V9.97295H3.38086" stroke="#222E50" stroke-width="2.91892"/>
<path fill-rule="evenodd" clip-rule="evenodd" d="M35.4891 23.8378C35.4891 29.4801 30.9151 34.054 25.2729 34.054C19.6306 34.054 15.0566 29.4801 15.0566 23.8378C15.0566 18.1955 19.6306 13.6216 25.2729 13.6216C30.9151 13.6216 35.4891 18.1955 35.4891 23.8378Z" stroke="#222E50" stroke-width="2.91892"/>
<path d="M25.2734 24.8594H29.3599" stroke="#222E50" stroke-width="2.91892" stroke-linecap="round" stroke-linejoin="round"/>
</g>
</g>
<defs>
<clipPath id="clip0_15640_5680">
<rect width="36" height="36" fill="white" transform="translate(0.949219)"/>
</clipPath>
<clipPath id="clip1_15640_5680">
<rect width="36" height="36" fill="white" transform="translate(0.949219)"/>
</clipPath>
</defs>
</svg>
