<svg width="38" height="30" viewBox="0 0 38 30" fill="none" xmlns="http://www.w3.org/2000/svg">
<path d="M0.5 0V22H19.42C19.0304 20.8168 18.8324 19.579 18.8333 18.3333H7.83333C7.83333 17.3609 7.44703 16.4282 6.75939 15.7406C6.07176 15.053 5.13913 14.6667 4.16667 14.6667V7.33333C6.20167 7.33333 7.83333 5.70167 7.83333 3.66667H26.1667C26.1667 4.63913 26.553 5.57176 27.2406 6.25939C27.9282 6.94702 28.8609 7.33333 29.8333 7.33333V7.44333C31.0617 7.44333 32.29 7.66333 33.5 8.06667V0H0.5ZM17 5.5C13.8833 5.555 11.5 7.88333 11.5 11C11.5 14.1167 13.8833 16.39 17 16.5C17.6967 16.5 18.4117 16.3533 19.09 16.0783C19.585 14.0617 20.41 12.155 22.445 10.285C22.225 7.84667 19.915 5.445 17 5.5ZM29.8333 9.16667L33.9583 13.2917L29.8333 17.4167V14.6667C26.4417 14.6667 24.2233 18.26 25.7267 21.3033L23.7283 23.3017C20.5017 18.425 23.985 11.9167 29.8333 11.9167V9.16667ZM29.8333 29.3333L25.7083 25.2083L29.8333 21.0833V23.8333C33.225 23.8333 35.4433 20.24 33.94 17.1967L35.9383 15.1983C39.165 20.075 35.6817 26.5833 29.8333 26.5833V29.3333Z" fill="#222E50"/>
</svg>
