<svg width="36" height="38" viewBox="0 0 36 38" fill="none" xmlns="http://www.w3.org/2000/svg">
<path d="M17.0007 17.3334H13.6673V14.0001H17.0007V17.3334ZM20.334 17.3334H23.6673V14.0001H20.334V17.3334ZM19.334 34.0001H17.0007V28.1667H13.6673V34.0001H3.66732V4.00008H27.0007V20.8334C27.5007 20.6667 28.1673 20.6667 28.6673 20.6667C29.1673 20.6667 29.834 20.6667 30.334 20.8334V0.666748H0.333984V37.3334H21.1673C20.334 36.3334 19.6673 35.1667 19.334 34.0001ZM20.334 10.6667H23.6673V7.33342H20.334V10.6667ZM23.6673 22.0001V20.6667H20.334V24.0001H21.1673C22.0007 23.1667 22.834 22.5001 23.6673 22.0001ZM10.334 7.33342H7.00065V10.6667H10.334V7.33342ZM10.334 14.0001H7.00065V17.3334H10.334V14.0001ZM7.00065 30.6667H10.334V27.3334H7.00065V30.6667ZM17.0007 7.33342H13.6673V10.6667H17.0007V7.33342ZM13.6673 24.0001H17.0007V20.6667H13.6673V24.0001ZM10.334 20.6667H7.00065V24.0001H10.334V20.6667ZM27.0007 24.0001V29.0001H22.0007V32.3334H27.0007V37.3334H30.334V32.3334H35.334V29.0001H30.334V24.0001H27.0007Z" fill="#222E50"/>
</svg>
