<svg width="37" height="36" viewBox="0 0 37 36" fill="none" xmlns="http://www.w3.org/2000/svg">
<g clip-path="url(#clip0_14383_64493)">
<path d="M32.4994 15H31.4994V9C31.4994 8.73478 31.394 8.48043 31.2065 8.29289C31.019 8.10536 30.7646 8 30.4994 8H6.4994C6.26262 8.00386 6.03214 7.92356 5.84902 7.7734C5.66589 7.62324 5.542 7.41296 5.4994 7.18V6.82C5.542 6.58704 5.66589 6.37676 5.84902 6.2266C6.03214 6.07644 6.26262 5.99614 6.4994 6H30.0794C30.3446 6 30.599 5.89464 30.7865 5.70711C30.974 5.51957 31.0794 5.26522 31.0794 5C31.0794 4.73478 30.974 4.48043 30.7865 4.29289C30.599 4.10536 30.3446 4 30.0794 4H6.4994C5.70376 4 4.94069 4.31607 4.37808 4.87868C3.81548 5.44129 3.4994 6.20435 3.4994 7C3.49239 7.1199 3.49239 7.2401 3.4994 7.36V27.93C3.50333 28.4684 3.61327 29.0008 3.82295 29.4967C4.03263 29.9927 4.33794 30.4424 4.72145 30.8204C5.10496 31.1983 5.55915 31.497 6.0581 31.6994C6.55705 31.9018 7.09098 32.004 7.62941 32H30.4994C30.7646 32 31.019 31.8946 31.2065 31.7071C31.394 31.5196 31.4994 31.2652 31.4994 31V25H32.4994C32.7646 25 33.019 24.8946 33.2065 24.7071C33.394 24.5196 33.4994 24.2652 33.4994 24V16C33.4994 15.7348 33.394 15.4804 33.2065 15.2929C33.019 15.1054 32.7646 15 32.4994 15ZM29.4994 30H7.62941C7.07321 30.0054 6.53738 29.7909 6.1385 29.4033C5.73961 29.0156 5.50992 28.4861 5.4994 27.93V9.88C5.824 9.97407 6.16177 10.0146 6.4994 10H29.4994V15H22.4994C21.1733 15 19.9016 15.5268 18.9639 16.4645C18.0262 17.4021 17.4994 18.6739 17.4994 20C17.4994 21.3261 18.0262 22.5979 18.9639 23.5355C19.9016 24.4732 21.1733 25 22.4994 25H29.4994V30ZM31.4994 23H22.4994C21.7038 23 20.9407 22.6839 20.3781 22.1213C19.8155 21.5587 19.4994 20.7956 19.4994 20C19.4994 19.2044 19.8155 18.4413 20.3781 17.8787C20.9407 17.3161 21.7038 17 22.4994 17H31.4994V23Z" fill="white"/>
<path d="M23.5098 21.5C24.3382 21.5 25.0098 20.8284 25.0098 20C25.0098 19.1716 24.3382 18.5 23.5098 18.5C22.6813 18.5 22.0098 19.1716 22.0098 20C22.0098 20.8284 22.6813 21.5 23.5098 21.5Z" fill="white"/>
</g>
<defs>
<clipPath id="clip0_14383_64493">
<rect width="36" height="36" fill="white" transform="translate(0.5)"/>
</clipPath>
</defs>
</svg>
